<svg width="24" height="25" viewBox="0 0 24 25" fill="none" xmlns="http://www.w3.org/2000/svg">
<path d="M13.9771 3.5C14.0618 3.49985 14.1457 3.51639 14.224 3.54867C14.3022 3.58095 14.3734 3.62834 14.4333 3.68814L20.8119 10.0667C20.9327 10.1875 21.0005 10.3514 21.0005 10.5222C21.0005 10.6931 20.9327 10.8569 20.8119 10.9777C20.1933 11.5963 19.4305 11.7354 18.8751 11.7354C18.647 11.7354 18.4434 11.7122 18.2823 11.6852L14.2439 15.7236C14.3502 16.152 14.4192 16.5887 14.4501 17.029C14.5093 17.9336 14.4088 19.2028 13.5223 20.0894C13.4014 20.2102 13.2376 20.278 13.0668 20.278C12.8959 20.278 12.7321 20.2102 12.6112 20.0894L8.96579 16.4452L4.86547 20.5456C4.6142 20.7968 3.29467 21.7079 3.0434 21.4566C2.79212 21.2053 3.70316 19.8845 3.95444 19.6345L8.05475 15.5342L4.4106 11.8888C4.28981 11.7679 4.22196 11.6041 4.22196 11.4332C4.22196 11.2624 4.28981 11.0986 4.4106 10.9777C5.29715 10.0912 6.56642 9.98938 7.47102 10.0499C7.91128 10.0808 8.34803 10.1498 8.77637 10.2561L12.8148 6.21894C12.7811 6.02271 12.7639 5.824 12.7633 5.6249C12.7633 5.0708 12.9025 4.30795 13.5223 3.68814C13.643 3.56769 13.8066 3.50004 13.9771 3.5Z" fill="#686868"/>
</svg>
