<svg width="33" height="37" viewBox="0 0 33 37" fill="none" xmlns="http://www.w3.org/2000/svg">
<path d="M2.92214 14V0.909091H4.50737V12.5938H10.5926V14H2.92214ZM30.5828 7.45455C30.5828 8.83523 30.3335 10.0284 29.835 11.0341C29.3364 12.0398 28.6524 12.8153 27.7831 13.3608C26.9138 13.9062 25.9209 14.179 24.8044 14.179C23.6879 14.179 22.695 13.9062 21.8257 13.3608C20.9564 12.8153 20.2725 12.0398 19.7739 11.0341C19.2753 10.0284 19.026 8.83523 19.026 7.45455C19.026 6.07386 19.2753 4.88068 19.7739 3.875C20.2725 2.86932 20.9564 2.09375 21.8257 1.5483C22.695 1.00284 23.6879 0.730113 24.8044 0.730113C25.9209 0.730113 26.9138 1.00284 27.7831 1.5483C28.6524 2.09375 29.3364 2.86932 29.835 3.875C30.3335 4.88068 30.5828 6.07386 30.5828 7.45455ZM29.0487 7.45455C29.0487 6.32102 28.8591 5.36435 28.4798 4.58452C28.1048 3.80469 27.5956 3.21449 26.9521 2.81392C26.3129 2.41335 25.597 2.21307 24.8044 2.21307C24.0118 2.21307 23.2938 2.41335 22.6503 2.81392C22.0111 3.21449 21.5019 3.80469 21.1226 4.58452C20.7476 5.36435 20.5601 6.32102 20.5601 7.45455C20.5601 8.58807 20.7476 9.54474 21.1226 10.3246C21.5019 11.1044 22.0111 11.6946 22.6503 12.0952C23.2938 12.4957 24.0118 12.696 24.8044 12.696C25.597 12.696 26.3129 12.4957 26.9521 12.0952C27.5956 11.6946 28.1048 11.1044 28.4798 10.3246C28.8591 9.54474 29.0487 8.58807 29.0487 7.45455ZM9.99015 27C9.84952 26.5696 9.66415 26.1839 9.43404 25.843C9.20819 25.4979 8.93759 25.2038 8.62225 24.9609C8.31117 24.718 7.95748 24.5327 7.56117 24.4048C7.16486 24.277 6.7302 24.2131 6.25719 24.2131C5.48162 24.2131 4.77637 24.4134 4.14142 24.8139C3.50648 25.2145 3.00151 25.8047 2.62651 26.5845C2.25151 27.3643 2.06401 28.321 2.06401 29.4545C2.06401 30.5881 2.25364 31.5447 2.6329 32.3246C3.01216 33.1044 3.52566 33.6946 4.17338 34.0952C4.82111 34.4957 5.54981 34.696 6.35946 34.696C7.10946 34.696 7.76998 34.5362 8.341 34.2166C8.91628 33.8928 9.36373 33.4368 9.68333 32.8487C10.0072 32.2564 10.1691 31.5597 10.1691 30.7585L10.6549 30.8608H6.71742V29.4545H11.7032V30.8608C11.7032 31.9389 11.4731 32.8764 11.0129 33.6733C10.5569 34.4702 9.92623 35.0881 9.12083 35.527C8.31969 35.9616 7.39924 36.179 6.35946 36.179C5.20037 36.179 4.18191 35.9062 3.30407 35.3608C2.43049 34.8153 1.74867 34.0398 1.25861 33.0341C0.772816 32.0284 0.529918 30.8352 0.529918 29.4545C0.529918 28.419 0.668413 27.4879 0.945401 26.6612C1.22665 25.8303 1.62296 25.1229 2.13432 24.5391C2.64569 23.9553 3.2508 23.5078 3.94966 23.1967C4.64853 22.8857 5.4177 22.7301 6.25719 22.7301C6.94753 22.7301 7.591 22.8345 8.18759 23.0433C8.78844 23.2479 9.32324 23.5398 9.79199 23.919C10.265 24.294 10.6592 24.7436 10.9745 25.2678C11.2899 25.7876 11.5072 26.3651 11.6265 27H9.99015ZM32.4637 29.4545C32.4637 30.8352 32.2144 32.0284 31.7158 33.0341C31.2172 34.0398 30.5333 34.8153 29.664 35.3608C28.7947 35.9062 27.8018 36.179 26.6853 36.179C25.5688 36.179 24.5759 35.9062 23.7066 35.3608C22.8373 34.8153 22.1533 34.0398 21.6547 33.0341C21.1562 32.0284 20.9069 30.8352 20.9069 29.4545C20.9069 28.0739 21.1562 26.8807 21.6547 25.875C22.1533 24.8693 22.8373 24.0938 23.7066 23.5483C24.5759 23.0028 25.5688 22.7301 26.6853 22.7301C27.8018 22.7301 28.7947 23.0028 29.664 23.5483C30.5333 24.0938 31.2172 24.8693 31.7158 25.875C32.2144 26.8807 32.4637 28.0739 32.4637 29.4545ZM30.9296 29.4545C30.9296 28.321 30.74 27.3643 30.3607 26.5845C29.9857 25.8047 29.4765 25.2145 28.833 24.8139C28.1938 24.4134 27.4779 24.2131 26.6853 24.2131C25.8927 24.2131 25.1746 24.4134 24.5312 24.8139C23.892 25.2145 23.3827 25.8047 23.0035 26.5845C22.6285 27.3643 22.441 28.321 22.441 29.4545C22.441 30.5881 22.6285 31.5447 23.0035 32.3246C23.3827 33.1044 23.892 33.6946 24.5312 34.0952C25.1746 34.4957 25.8927 34.696 26.6853 34.696C27.4779 34.696 28.1938 34.4957 28.833 34.0952C29.4765 33.6946 29.9857 33.1044 30.3607 32.3246C30.74 31.5447 30.9296 30.5881 30.9296 29.4545Z" fill="white"/>
</svg>
