<svg width="24" height="25" viewBox="0 0 24 25" fill="none" xmlns="http://www.w3.org/2000/svg">
<path fill-rule="evenodd" clip-rule="evenodd" d="M4 7.47803C4 8.03031 4.44772 8.47803 5 8.47803H9C9.55228 8.47803 10 8.03031 10 7.47803V5.47803C10 4.92574 9.55228 4.47803 9 4.47803H5C4.44772 4.47803 4 4.92574 4 5.47803V7.47803Z" stroke="white" stroke-width="1.5"/>
<path fill-rule="evenodd" clip-rule="evenodd" d="M4 19.478C4 20.0303 4.44772 20.478 5 20.478H9C9.55228 20.478 10 20.0303 10 19.478V12.478C10 11.9257 9.55228 11.478 9 11.478H5C4.44772 11.478 4 11.9257 4 12.478V19.478Z" stroke="white" stroke-width="1.5"/>
<path fill-rule="evenodd" clip-rule="evenodd" d="M13 7.47803C13 8.03031 13.4477 8.47803 14 8.47803H19C19.5523 8.47803 20 8.03031 20 7.47803V5.47803C20 4.92574 19.5523 4.47803 19 4.47803H14C13.4477 4.47803 13 4.92574 13 5.47803V7.47803Z" stroke="white" stroke-width="1.5"/>
<path fill-rule="evenodd" clip-rule="evenodd" d="M13 17.478C13 18.0303 13.4477 18.478 14 18.478H19C19.5523 18.478 20 18.0303 20 17.478V12.478C20 11.9257 19.5523 11.478 19 11.478H14C13.4477 11.478 13 11.9257 13 12.478V17.478Z" stroke="white" stroke-width="1.5"/>
</svg>
