<svg width="24" height="24" viewBox="0 0 24 24" fill="none" xmlns="http://www.w3.org/2000/svg">
<path d="M18.7254 7.3144L16.3109 4.89996L9.55195 11.5995L11.9916 14.0212L18.7254 7.3144ZM8.27721 15.2167L11.4352 14.4515L9.12163 12.1559L8.27721 15.2167ZM20.2414 3.88809L19.7571 3.40376C19.2187 2.86541 18.3581 2.86541 17.8198 3.40376L16.9015 4.3148L19.3159 6.72924L20.2414 5.8074C20.7797 5.28706 20.7797 4.42643 20.2414 3.88809ZM17.3732 19.0499C17.3732 19.2534 17.2076 19.419 17.0041 19.419H15.2721H14.5789H4.8707C4.66724 19.419 4.5016 19.2534 4.5016 19.0499V5.58594C4.5016 5.38249 4.66724 5.21684 4.8707 5.21684H14.2656V3.71524H4.8707C3.83902 3.71524 3 4.55426 3 5.58594V19.0499C3 20.0816 3.83902 20.9188 4.8707 20.9188H14.5789H15.2721H17.0041C18.0358 20.9188 18.8748 20.0798 18.8748 19.0499V10.0241H17.375V19.0499H17.3732Z" fill="white"/>
</svg>
