<svg width="22" height="22" viewBox="0 0 22 22" fill="none" xmlns="http://www.w3.org/2000/svg">
<path fill-rule="evenodd" clip-rule="evenodd" d="M10.5 2.75C13.9572 2.75 16.7728 5.49699 16.8841 8.9276L16.8875 9.13848V13.0767C16.8875 13.8552 17.4852 14.494 18.2467 14.5591L18.4915 14.5707C19.4639 14.675 19.5013 16.0851 18.6037 16.2899L18.4915 16.3085L18.375 16.3146H2.625L2.50847 16.3085C1.49718 16.2 1.49718 14.6792 2.50847 14.5707L2.75334 14.5591C3.47245 14.4977 4.04558 13.9244 4.10704 13.2051L4.1125 13.0767V9.13848C4.1125 5.61025 6.97225 2.75 10.5 2.75ZM11.8624 17.7152C12.5367 17.7152 12.9576 18.4458 12.6193 19.0291C12.181 19.7848 11.3735 20.25 10.5 20.25C9.62645 20.25 8.819 19.7848 8.38072 19.0291C8.05931 18.475 8.42309 17.7879 9.03844 17.7205L9.13763 17.7152H11.8624ZM5.86637 8.94728C5.96662 6.47415 8.00284 4.5 10.5 4.5C13.0612 4.5 15.1375 6.57668 15.1375 9.13848V13.0767L15.142 13.2486L15.1617 13.4742C15.2072 13.8465 15.316 14.1992 15.4768 14.5214L15.4998 14.5642H5.49937L5.52317 14.5214L5.61035 14.3316C5.77274 13.9457 5.8625 13.5217 5.8625 13.0767V9.13848L5.86637 8.94728Z" fill="white"/>
<circle cx="19.5" cy="2.5" r="2" fill="white"/>
</svg>
